<svg width="21" height="20" viewBox="0 0 21 20" fill="none" xmlns="http://www.w3.org/2000/svg">
<g id="DashIcon" clip-path="url(#clip0_340_1282)">
<path id="Vector" d="M14.6667 10C14.6667 10.4608 14.2933 10.8333 13.8333 10.8333H11.3333V13.3333C11.3333 13.7942 10.96 14.1667 10.5 14.1667C10.04 14.1667 9.66667 13.7942 9.66667 13.3333V10.8333H7.16667C6.70667 10.8333 6.33333 10.4608 6.33333 10C6.33333 9.53917 6.70667 9.16667 7.16667 9.16667H9.66667V6.66667C9.66667 6.20583 10.04 5.83333 10.5 5.83333C10.96 5.83333 11.3333 6.20583 11.3333 6.66667V9.16667H13.8333C14.2933 9.16667 14.6667 9.53917 14.6667 10ZM20.5 4.16667V15.8333C20.5 18.1308 18.6308 20 16.3333 20H4.66667C2.36917 20 0.5 18.1308 0.5 15.8333V4.16667C0.5 1.86917 2.36917 0 4.66667 0H16.3333C18.6308 0 20.5 1.86917 20.5 4.16667ZM18.8333 4.16667C18.8333 2.78833 17.7117 1.66667 16.3333 1.66667H4.66667C3.28833 1.66667 2.16667 2.78833 2.16667 4.16667V15.8333C2.16667 17.2117 3.28833 18.3333 4.66667 18.3333H16.3333C17.7117 18.3333 18.8333 17.2117 18.8333 15.8333V4.16667Z" fill="#090A0B"/>
</g>
<defs>
<clipPath id="clip0_340_1282">
<rect width="20" height="20" fill="white" transform="translate(0.5)"/>
</clipPath>
</defs>
</svg>
