<svg width="16" height="16" viewBox="0 0 16 16" fill="none" xmlns="http://www.w3.org/2000/svg">
<g id="DashIcon" clip-path="url(#clip0_618_271)">
<path id="Vector" d="M11.3333 8C11.3333 8.36867 11.0347 8.66667 10.6667 8.66667H8.66667V10.6667C8.66667 11.0353 8.368 11.3333 8 11.3333C7.632 11.3333 7.33333 11.0353 7.33333 10.6667V8.66667H5.33333C4.96533 8.66667 4.66667 8.36867 4.66667 8C4.66667 7.63133 4.96533 7.33333 5.33333 7.33333H7.33333V5.33333C7.33333 4.96467 7.632 4.66667 8 4.66667C8.368 4.66667 8.66667 4.96467 8.66667 5.33333V7.33333H10.6667C11.0347 7.33333 11.3333 7.63133 11.3333 8ZM16 3.33333V12.6667C16 14.5047 14.5047 16 12.6667 16H3.33333C1.49533 16 0 14.5047 0 12.6667V3.33333C0 1.49533 1.49533 0 3.33333 0H12.6667C14.5047 0 16 1.49533 16 3.33333ZM14.6667 3.33333C14.6667 2.23067 13.7693 1.33333 12.6667 1.33333H3.33333C2.23067 1.33333 1.33333 2.23067 1.33333 3.33333V12.6667C1.33333 13.7693 2.23067 14.6667 3.33333 14.6667H12.6667C13.7693 14.6667 14.6667 13.7693 14.6667 12.6667V3.33333Z" fill="white"/>
</g>
<defs>
<clipPath id="clip0_618_271">
<rect width="16" height="16" fill="white"/>
</clipPath>
</defs>
</svg>
