<svg width="18" height="18" viewBox="0 0 18 18" fill="none" xmlns="http://www.w3.org/2000/svg">
<g id="arrows-repeat 2" clip-path="url(#clip0_213_2736)">
<path id="Vector" d="M18 9C18 12.3083 15.3082 15 12 15H2.25L3.96975 16.7198C4.263 17.013 4.263 17.487 3.96975 17.7803C3.8235 17.9265 3.6315 18 3.4395 18C3.2475 18 3.0555 17.9265 2.90925 17.7803L0.4395 15.3105C-0.1455 14.7263 -0.1455 13.7738 0.4395 13.1895L2.90925 10.7198C3.2025 10.4265 3.6765 10.4265 3.96975 10.7198C4.263 11.013 4.263 11.487 3.96975 11.7803L2.25 13.5H12C14.4818 13.5 16.5 11.4818 16.5 9C16.5 8.58525 16.836 8.25 17.25 8.25C17.664 8.25 18 8.58525 18 9ZM0.75 9.75C1.164 9.75 1.5 9.41475 1.5 9C1.5 6.51825 3.51825 4.5 6 4.5H15.75L14.0303 6.21976C13.737 6.513 13.737 6.987 14.0303 7.28025C14.1765 7.4265 14.3685 7.5 14.5605 7.5C14.7525 7.5 14.9445 7.4265 15.0907 7.28025L17.5605 4.8105C18.1455 4.22625 18.1455 3.27375 17.5605 2.6895L15.0907 0.219754C14.7975 -0.0734956 14.3235 -0.0734956 14.0303 0.219754C13.737 0.513004 13.737 0.987004 14.0303 1.28025L15.75 3H6C2.69175 3 0 5.69175 0 9C0 9.41475 0.336 9.75 0.75 9.75Z" fill="#090A0B"/>
</g>
<defs>
<clipPath id="clip0_213_2736">
<rect width="18" height="18" fill="white"/>
</clipPath>
</defs>
</svg>
