<svg width="20" height="20" viewBox="0 0 20 20" fill="none" xmlns="http://www.w3.org/2000/svg">
<g id="BtnIcon" clip-path="url(#clip0_378_529)">
<path id="Vector" d="M13.0892 8.08917L11.1783 10L13.0892 11.9108C13.415 12.2367 13.415 12.7633 13.0892 13.0892C12.9267 13.2517 12.7133 13.3333 12.5 13.3333C12.2867 13.3333 12.0733 13.2517 11.9108 13.0892L10 11.1783L8.08917 13.0892C7.92667 13.2517 7.71333 13.3333 7.5 13.3333C7.28667 13.3333 7.07333 13.2517 6.91083 13.0892C6.585 12.7633 6.585 12.2367 6.91083 11.9108L8.82167 10L6.91083 8.08917C6.585 7.76333 6.585 7.23667 6.91083 6.91083C7.23667 6.585 7.76333 6.585 8.08917 6.91083L10 8.82167L11.9108 6.91083C12.2367 6.585 12.7633 6.585 13.0892 6.91083C13.415 7.23667 13.415 7.76333 13.0892 8.08917ZM20 10C20 15.5142 15.5142 20 10 20C4.48583 20 0 15.5142 0 10C0 4.48583 4.48583 0 10 0C15.5142 0 20 4.48583 20 10ZM18.3333 10C18.3333 5.405 14.595 1.66667 10 1.66667C5.405 1.66667 1.66667 5.405 1.66667 10C1.66667 14.595 5.405 18.3333 10 18.3333C14.595 18.3333 18.3333 14.595 18.3333 10Z" fill="#090A0B"/>
</g>
<defs>
<clipPath id="clip0_378_529">
<rect width="20" height="20" fill="white"/>
</clipPath>
</defs>
</svg>
