<svg width="154" height="18" viewBox="0 0 154 18" fill="none" xmlns="http://www.w3.org/2000/svg">
<g id="convioo">
<path d="M0 9.01478C0 2.60098 4.71973 0 11.7418 0C18.0731 0 22.5338 2.12808 23.3396 7.24138H18.3033C17.6414 4.99507 15.3103 4.2266 11.7418 4.2266C7.51127 4.2266 4.92118 5.37931 4.92118 9.01478C4.92118 12.6207 7.51127 13.7734 11.7418 13.7734C15.3103 13.7734 17.6414 13.0049 18.3033 10.7586H23.3396C22.5338 15.8719 18.0731 18 11.7418 18C4.71973 18 0 15.399 0 9.01478Z" fill="#090A0B"/>
<path d="M36.5017 18C29.4796 18 24.7599 15.399 24.7599 9.01478C24.7599 2.60098 29.4796 0 36.5017 0C43.4949 0 48.2434 2.60098 48.2434 9.01478C48.2434 15.399 43.4949 18 36.5017 18ZM36.5017 13.7734C41.0487 13.7734 43.2935 12.6207 43.2935 9.01478C43.2935 5.37931 41.0487 4.2266 36.5017 4.2266C31.9258 4.2266 29.6811 5.37931 29.6811 9.01478C29.6811 12.6207 31.9258 13.7734 36.5017 13.7734Z" fill="#090A0B"/>
<path d="M64.9091 0C69.4273 0 73.6578 1.65517 73.7154 8.06897L73.6578 17.7044H68.7079V9.99015C68.7079 6.29557 67.4992 4.37438 63.4413 4.37438C60.1318 4.37438 56.5632 6.11823 55.0379 7.95074V17.7044H50.1168V0.295566H55.0379V3.3399C57.4554 1.38916 60.7937 0 64.9091 0Z" fill="#090A0B"/>
<path d="M92.1154 0.295566H97.5834L88.9785 17.7044H81.9565L73.3804 0.295566H78.8484L85.4963 14.1281L92.1154 0.295566Z" fill="#090A0B"/>
<path d="M98.8215 0.295566H103.743V17.7044H98.8215V0.295566Z" fill="#090A0B"/>
<path d="M117.358 18C110.336 18 105.616 15.399 105.616 9.01478C105.616 2.60098 110.336 0 117.358 0C124.351 0 129.1 2.60098 129.1 9.01478C129.1 15.399 124.351 18 117.358 18ZM117.358 13.7734C121.905 13.7734 124.15 12.6207 124.15 9.01478C124.15 5.37931 121.905 4.2266 117.358 4.2266C112.782 4.2266 110.537 5.37931 110.537 9.01478C110.537 12.6207 112.782 13.7734 117.358 13.7734Z" fill="#090A0B"/>
<path d="M142.258 18C135.236 18 130.516 15.399 130.516 9.01478C130.516 2.60098 135.236 0 142.258 0C149.251 0 154 2.60098 154 9.01478C154 15.399 149.251 18 142.258 18ZM142.258 13.7734C146.805 13.7734 149.05 12.6207 149.05 9.01478C149.05 5.37931 146.805 4.2266 142.258 4.2266C137.682 4.2266 135.438 5.37931 135.438 9.01478C135.438 12.6207 137.682 13.7734 142.258 13.7734Z" fill="#090A0B"/>
</g>
</svg>
