<svg width="24" height="24" viewBox="0 0 24 24" fill="none" xmlns="http://www.w3.org/2000/svg">
<g id="cross-small (1)">
<path id="Vector" d="M14.1208 12.0001L17.9998 8.11706C18.2517 7.83082 18.3851 7.45942 18.3729 7.07836C18.3607 6.69729 18.2039 6.33516 17.9343 6.06556C17.6647 5.79597 17.3026 5.63915 16.9215 5.62699C16.5405 5.61482 16.1691 5.74822 15.8828 6.00006L11.9998 9.87906L8.10983 5.98806C7.9705 5.84873 7.80509 5.73821 7.62304 5.6628C7.441 5.5874 7.24588 5.54858 7.04883 5.54858C6.85179 5.54858 6.65667 5.5874 6.47462 5.6628C6.29258 5.73821 6.12717 5.84873 5.98783 5.98806C5.8485 6.1274 5.73798 6.29281 5.66257 6.47486C5.58716 6.6569 5.54835 6.85202 5.54835 7.04906C5.54835 7.24611 5.58716 7.44123 5.66257 7.62327C5.73798 7.80532 5.8485 7.97073 5.98783 8.11006L9.87883 12.0001L5.99983 15.8821C5.84771 16.0181 5.72492 16.1836 5.639 16.3687C5.55307 16.5538 5.50581 16.7545 5.5001 16.9584C5.49439 17.1624 5.53036 17.3654 5.6058 17.555C5.68124 17.7446 5.79457 17.9168 5.93885 18.061C6.08314 18.2053 6.25534 18.3187 6.44493 18.3941C6.63452 18.4695 6.83751 18.5055 7.04147 18.4998C7.24544 18.4941 7.4461 18.4468 7.63118 18.3609C7.81625 18.275 7.98184 18.1522 8.11783 18.0001L11.9998 14.1211L15.8778 18.0001C16.1592 18.2815 16.5409 18.4395 16.9388 18.4395C17.3368 18.4395 17.7184 18.2815 17.9998 18.0001C18.2812 17.7187 18.4393 17.337 18.4393 16.9391C18.4393 16.5411 18.2812 16.1595 17.9998 15.8781L14.1208 12.0001Z" fill="#EF4444"/>
</g>
</svg>
