<svg width="19" height="18" viewBox="0 0 19 18" fill="none" xmlns="http://www.w3.org/2000/svg">
<g id="expand 1" clip-path="url(#clip0_1312_169)">
<path id="Vector" d="M17.75 12C17.5511 12 17.3603 12.079 17.2197 12.2197C17.079 12.3603 17 12.5511 17 12.75V14.25C17 14.8467 16.7629 15.419 16.341 15.841C15.919 16.2629 15.3467 16.5 14.75 16.5H13.25C13.0511 16.5 12.8603 16.579 12.7197 16.7197C12.579 16.8603 12.5 17.0511 12.5 17.25C12.5 17.4489 12.579 17.6397 12.7197 17.7803C12.8603 17.921 13.0511 18 13.25 18H14.75C15.7442 17.9988 16.6973 17.6033 17.4003 16.9003C18.1033 16.1973 18.4988 15.2442 18.5 14.25V12.75C18.5 12.5511 18.421 12.3603 18.2803 12.2197C18.1397 12.079 17.9489 12 17.75 12Z" fill="white"/>
<path id="Vector_2" d="M5.75 0H4.25C3.2558 0.00119089 2.30267 0.396661 1.59966 1.09966C0.896661 1.80267 0.501191 2.7558 0.5 3.75L0.5 5.25C0.5 5.44891 0.579018 5.63968 0.71967 5.78033C0.860322 5.92098 1.05109 6 1.25 6C1.44891 6 1.63968 5.92098 1.78033 5.78033C1.92098 5.63968 2 5.44891 2 5.25V3.75C2 3.15326 2.23705 2.58097 2.65901 2.15901C3.08097 1.73705 3.65326 1.5 4.25 1.5H5.75C5.94891 1.5 6.13968 1.42098 6.28033 1.28033C6.42098 1.13968 6.5 0.948912 6.5 0.75C6.5 0.551088 6.42098 0.360322 6.28033 0.21967C6.13968 0.0790176 5.94891 0 5.75 0Z" fill="white"/>
<path id="Vector_3" d="M5.75 16.5H4.25C3.65326 16.5 3.08097 16.2629 2.65901 15.841C2.23705 15.419 2 14.8467 2 14.25V12.75C2 12.5511 1.92098 12.3603 1.78033 12.2197C1.63968 12.079 1.44891 12 1.25 12C1.05109 12 0.860322 12.079 0.71967 12.2197C0.579018 12.3603 0.5 12.5511 0.5 12.75L0.5 14.25C0.501191 15.2442 0.896661 16.1973 1.59966 16.9003C2.30267 17.6033 3.2558 17.9988 4.25 18H5.75C5.94891 18 6.13968 17.921 6.28033 17.7803C6.42098 17.6397 6.5 17.4489 6.5 17.25C6.5 17.0511 6.42098 16.8603 6.28033 16.7197C6.13968 16.579 5.94891 16.5 5.75 16.5Z" fill="white"/>
<path id="Vector_4" d="M14.75 0H13.25C13.0511 0 12.8603 0.0790176 12.7197 0.21967C12.579 0.360322 12.5 0.551088 12.5 0.75C12.5 0.948912 12.579 1.13968 12.7197 1.28033C12.8603 1.42098 13.0511 1.5 13.25 1.5H14.75C15.3467 1.5 15.919 1.73705 16.341 2.15901C16.7629 2.58097 17 3.15326 17 3.75V5.25C17 5.44891 17.079 5.63968 17.2197 5.78033C17.3603 5.92098 17.5511 6 17.75 6C17.9489 6 18.1397 5.92098 18.2803 5.78033C18.421 5.63968 18.5 5.44891 18.5 5.25V3.75C18.4988 2.7558 18.1033 1.80267 17.4003 1.09966C16.6973 0.396661 15.7442 0.00119089 14.75 0Z" fill="white"/>
</g>
<defs>
<clipPath id="clip0_1312_169">
<rect width="18" height="18" fill="white" transform="translate(0.5)"/>
</clipPath>
</defs>
</svg>
