<svg width="19" height="18" viewBox="0 0 19 18" fill="none" xmlns="http://www.w3.org/2000/svg">
<path d="M4.61312 2.25002L3.27888 5.62498H4.86062C5.28249 5.62498 5.66948 5.87135 5.84498 6.25835L6.3726 7.27759C6.5481 7.66346 6.9351 7.87496 7.35697 7.87496H11.6106C12.0324 7.87496 12.4194 7.66346 12.5949 7.27759L13.1225 6.25722C13.2087 6.06877 13.3472 5.90901 13.5215 5.79693C13.6958 5.68485 13.8986 5.62517 14.1058 5.62498H15.6875L14.351 2.25002H4.61312ZM2.60951 1.26565C2.74714 0.89234 2.9965 0.570528 3.32363 0.344054C3.65076 0.117581 4.03975 -0.00254506 4.43762 4.08902e-05H14.5277C14.9255 -0.00254506 15.3145 0.117581 15.6416 0.344054C15.9688 0.570528 16.2181 0.89234 16.3558 1.26565L18.3594 6.18747C18.4303 6.43385 18.5 6.68022 18.5 6.92547V9.28119C18.5 10.3713 17.5854 11.2499 16.5313 11.2499H2.46889C1.37877 11.2499 0.500154 10.3713 0.500154 9.28119V6.92547C0.500154 6.68022 0.535029 6.43385 0.640778 6.18747L2.60951 1.26565ZM2.18764 12.3749H4.85949C5.28136 12.3749 5.66836 12.6213 5.84386 13.0083L6.37148 14.0275C6.54698 14.4145 6.93397 14.6249 7.35584 14.6249H11.6094C12.0313 14.6249 12.4183 14.4134 12.5938 14.0275L13.1214 13.0083C13.2075 12.8194 13.3461 12.6593 13.5206 12.547C13.6951 12.4347 13.8983 12.375 14.1058 12.3749H16.8125C17.7271 12.3749 18.5 13.1489 18.5 14.0624V16.3124C18.5 16.7599 18.3222 17.1891 18.0057 17.5056C17.6893 17.8221 17.2601 17.9998 16.8125 17.9998H2.18764C1.9652 18.0029 1.74441 17.9613 1.5383 17.8776C1.3322 17.7938 1.14497 17.6696 0.987663 17.5123C0.830359 17.355 0.706173 17.1678 0.62244 16.9617C0.538708 16.7556 0.497127 16.5348 0.500154 16.3124V14.0624C0.500154 13.6148 0.677942 13.1856 0.994407 12.8692C1.31087 12.5527 1.74009 12.3749 2.18764 12.3749Z" fill="black"/>
</svg>
