<svg width="21" height="20" viewBox="0 0 21 20" fill="none" xmlns="http://www.w3.org/2000/svg">
<path d="M5.61312 3.25002L4.27888 6.62498H5.86062C6.28249 6.62498 6.66948 6.87135 6.84498 7.25835L7.3726 8.27759C7.5481 8.66346 7.9351 8.87496 8.35697 8.87496H12.6106C13.0324 8.87496 13.4194 8.66346 13.5949 8.27759L14.1225 7.25722C14.2087 7.06877 14.3472 6.90901 14.5215 6.79693C14.6958 6.68485 14.8986 6.62517 15.1058 6.62498H16.6875L15.351 3.25002H5.61312ZM3.60951 2.26565C3.74714 1.89234 3.9965 1.57053 4.32363 1.34405C4.65076 1.11758 5.03975 0.997455 5.43762 1.00004H15.5277C15.9255 0.997455 16.3145 1.11758 16.6416 1.34405C16.9688 1.57053 17.2181 1.89234 17.3558 2.26565L19.3594 7.18747C19.4303 7.43385 19.5 7.68022 19.5 7.92547V10.2812C19.5 11.3713 18.5854 12.2499 17.5313 12.2499H3.46889C2.37877 12.2499 1.50015 11.3713 1.50015 10.2812V7.92547C1.50015 7.68022 1.53503 7.43385 1.64078 7.18747L3.60951 2.26565ZM3.18764 13.3749H5.85949C6.28136 13.3749 6.66836 13.6213 6.84386 14.0083L7.37148 15.0275C7.54698 15.4145 7.93397 15.6249 8.35584 15.6249H12.6094C13.0313 15.6249 13.4183 15.4134 13.5938 15.0275L14.1214 14.0083C14.2075 13.8194 14.3461 13.6593 14.5206 13.547C14.6951 13.4347 14.8983 13.375 15.1058 13.3749H17.8125C18.7271 13.3749 19.5 14.1489 19.5 15.0624V17.3124C19.5 17.7599 19.3222 18.1891 19.0057 18.5056C18.6893 18.8221 18.2601 18.9998 17.8125 18.9998H3.18764C2.9652 19.0029 2.74441 18.9613 2.5383 18.8776C2.3322 18.7938 2.14497 18.6696 1.98766 18.5123C1.83036 18.355 1.70617 18.1678 1.62244 17.9617C1.53871 17.7556 1.49713 17.5348 1.50015 17.3124V15.0624C1.50015 14.6148 1.67794 14.1856 1.99441 13.8692C2.31087 13.5527 2.74009 13.3749 3.18764 13.3749Z" fill="#3D4FE0"/>
</svg>
