<svg width="16" height="16" viewBox="0 0 16 16" fill="none" xmlns="http://www.w3.org/2000/svg">
<g id="Folder" clip-path="url(#clip0_513_310)">
<path id="Vector" d="M10.6667 9.99984C10.6667 10.1766 10.5964 10.3462 10.4714 10.4712C10.3464 10.5963 10.1768 10.6665 10 10.6665H8.66667V11.9998C8.66667 12.1766 8.59643 12.3462 8.47141 12.4712C8.34638 12.5963 8.17681 12.6665 8 12.6665C7.82319 12.6665 7.65362 12.5963 7.5286 12.4712C7.40357 12.3462 7.33333 12.1766 7.33333 11.9998V10.6665H6C5.82319 10.6665 5.65362 10.5963 5.5286 10.4712C5.40357 10.3462 5.33333 10.1766 5.33333 9.99984C5.33333 9.82303 5.40357 9.65346 5.5286 9.52843C5.65362 9.40341 5.82319 9.33317 6 9.33317H7.33333V7.99984C7.33333 7.82303 7.40357 7.65346 7.5286 7.52843C7.65362 7.40341 7.82319 7.33317 8 7.33317C8.17681 7.33317 8.34638 7.40341 8.47141 7.52843C8.59643 7.65346 8.66667 7.82303 8.66667 7.99984V9.33317H10C10.1768 9.33317 10.3464 9.40341 10.4714 9.52843C10.5964 9.65346 10.6667 9.82303 10.6667 9.99984ZM16 5.33317V11.9998C15.9989 12.8836 15.6474 13.7308 15.0225 14.3557C14.3976 14.9806 13.5504 15.3321 12.6667 15.3332H3.33333C2.4496 15.3321 1.60237 14.9806 0.97748 14.3557C0.352588 13.7308 0.00105857 12.8836 0 11.9998L0 3.99984C0.00105857 3.11611 0.352588 2.26888 0.97748 1.64398C1.60237 1.01909 2.4496 0.667562 3.33333 0.666504H5.01867C5.32893 0.666761 5.63493 0.738867 5.91267 0.877171L8.01667 1.93317C8.10963 1.97779 8.21155 2.00059 8.31467 1.99984H12.6667C13.5504 2.0009 14.3976 2.35243 15.0225 2.97732C15.6474 3.60221 15.9989 4.44944 16 5.33317ZM1.33333 3.99984V4.6665H14.544C14.4066 4.2779 14.1525 3.94123 13.8165 3.70256C13.4804 3.46389 13.0788 3.33488 12.6667 3.33317H8.31467C8.0044 3.33291 7.6984 3.26081 7.42067 3.1225L5.31667 2.06984C5.22398 2.02407 5.12204 2.00012 5.01867 1.99984H3.33333C2.8029 1.99984 2.29419 2.21055 1.91912 2.58562C1.54405 2.9607 1.33333 3.4694 1.33333 3.99984ZM14.6667 11.9998V5.99984H1.33333V11.9998C1.33333 12.5303 1.54405 13.039 1.91912 13.4141C2.29419 13.7891 2.8029 13.9998 3.33333 13.9998H12.6667C13.1971 13.9998 13.7058 13.7891 14.0809 13.4141C14.456 13.039 14.6667 12.5303 14.6667 11.9998Z" fill="#090A0B"/>
</g>
<defs>
<clipPath id="clip0_513_310">
<rect width="16" height="16" fill="white"/>
</clipPath>
</defs>
</svg>
