<svg width="20" height="20" viewBox="0 0 20 20" fill="none" xmlns="http://www.w3.org/2000/svg">
<g id="link" clip-path="url(#clip0_762_1460)">
<path id="Vector" d="M11.5374 14.3892L8.81906 17.1075C8.02983 17.8757 6.9699 18.3022 5.8686 18.2948C4.7673 18.2874 3.71319 17.8467 2.93432 17.0681C2.15546 16.2894 1.71447 15.2355 1.70678 14.1342C1.69909 13.0329 2.12531 11.9728 2.89323 11.1834L5.61156 8.46252C5.76782 8.30616 5.85556 8.09412 5.85548 7.87306C5.8554 7.652 5.76751 7.44003 5.61115 7.28377C5.45478 7.12752 5.24274 7.03978 5.02168 7.03986C4.80063 7.03993 4.58865 7.12782 4.4324 7.28419L1.7149 10.005C0.616788 11.1037 9.77544e-05 12.5936 0.000488467 14.1469C0.000879179 15.7003 0.618319 17.1898 1.71698 18.2879C2.81564 19.386 4.30552 20.0027 5.85887 20.0023C7.41222 20.002 8.90179 19.3845 9.9999 18.2859L12.7182 15.5675C12.87 15.4104 12.954 15.1999 12.9521 14.9814C12.9502 14.7629 12.8626 14.5538 12.7081 14.3993C12.5536 14.2448 12.3446 14.1572 12.1261 14.1553C11.9076 14.1534 11.6971 14.2374 11.5399 14.3892H11.5374Z" fill="black"/>
<path id="Vector_2" d="M18.2867 1.71749C17.7445 1.1715 17.0992 0.738556 16.3884 0.443737C15.6776 0.148918 14.9154 -0.0019109 14.1459 -9.98361e-06C13.3768 -0.00205309 12.6149 0.148388 11.9043 0.442616C11.1937 0.736844 10.5484 1.16902 10.0059 1.71416L7.2834 4.43332C7.12703 4.58958 7.03914 4.80155 7.03906 5.02261C7.03898 5.24367 7.12672 5.45571 7.28298 5.61207C7.43924 5.76844 7.65121 5.85633 7.87227 5.85641C8.09333 5.85649 8.30536 5.76875 8.46173 5.61249L11.1826 2.89416C11.5705 2.50386 12.0321 2.19441 12.5404 1.98371C13.0488 1.773 13.5939 1.66524 14.1442 1.66666C14.9728 1.66693 15.7827 1.91285 16.4715 2.37332C17.1603 2.8338 17.6971 3.48815 18.0141 4.25367C18.3311 5.01919 18.414 5.86151 18.2523 6.67414C18.0907 7.48677 17.6917 8.23323 17.1059 8.81916L14.3876 11.5375C14.2312 11.6939 14.1434 11.9059 14.1434 12.1271C14.1434 12.3482 14.2312 12.5603 14.3876 12.7167C14.5439 12.873 14.756 12.9609 14.9771 12.9609C15.1983 12.9609 15.4104 12.873 15.5667 12.7167L18.2851 9.99999C19.3818 8.9009 19.9978 7.41174 19.9981 5.85909C19.9985 4.30643 19.383 2.81702 18.2867 1.71749Z" fill="black"/>
<path id="Vector_3" d="M11.9109 6.91081L6.9109 11.9108C6.83131 11.9877 6.76782 12.0796 6.72415 12.1813C6.68048 12.283 6.65749 12.3923 6.65653 12.503C6.65556 12.6136 6.67665 12.7234 6.71855 12.8258C6.76045 12.9282 6.82233 13.0212 6.90057 13.0995C6.97882 13.1777 7.07186 13.2396 7.17427 13.2815C7.27669 13.3234 7.38642 13.3445 7.49707 13.3435C7.60772 13.3426 7.71707 13.3196 7.81874 13.2759C7.92041 13.2322 8.01236 13.1687 8.08923 13.0891L13.0892 8.08914C13.241 7.93197 13.325 7.72147 13.3231 7.50297C13.3212 7.28447 13.2336 7.07546 13.0791 6.92096C12.9246 6.76645 12.7156 6.67881 12.4971 6.67691C12.2786 6.67501 12.0681 6.75901 11.9109 6.91081Z" fill="black"/>
</g>
<defs>
<clipPath id="clip0_762_1460">
<rect width="20" height="20" fill="white"/>
</clipPath>
</defs>
</svg>
