<svg width="20" height="20" viewBox="0 0 20 20" fill="none" xmlns="http://www.w3.org/2000/svg">
<g id="minus-circle" clip-path="url(#clip0_183_2469)">
<path id="Vector" d="M10 0C4.48583 0 0 4.48583 0 10C0 15.5142 4.48583 20 10 20C15.5142 20 20 15.5142 20 10C20 4.48583 15.5142 0 10 0ZM10 18.3333C5.405 18.3333 1.66667 14.595 1.66667 10C1.66667 5.405 5.405 1.66667 10 1.66667C14.595 1.66667 18.3333 5.405 18.3333 10C18.3333 14.595 14.595 18.3333 10 18.3333ZM14.1667 10C14.1667 10.46 13.7933 10.8333 13.3333 10.8333H6.66667C6.20667 10.8333 5.83333 10.46 5.83333 10C5.83333 9.54 6.20667 9.16667 6.66667 9.16667H13.3333C13.7933 9.16667 14.1667 9.54 14.1667 10Z" fill="#C3C3C3"/>
</g>
<defs>
<clipPath id="clip0_183_2469">
<rect width="20" height="20" fill="white"/>
</clipPath>
</defs>
</svg>
