<svg width="24" height="24" viewBox="0 0 24 24" fill="none" xmlns="http://www.w3.org/2000/svg">
<g clip-path="url(#clip0_1289_2243)">
<path d="M15 24H9C6.243 24 4 21.757 4 19V5C4 2.243 6.243 0 9 0H15C17.757 0 20 2.243 20 5V19C20 21.757 17.757 24 15 24ZM9 2C7.346 2 6 3.346 6 5V19C6 20.654 7.346 22 9 22H15C16.654 22 18 20.654 18 19V5C18 3.346 16.654 2 15 2H9ZM14 19C14 18.448 13.552 18 13 18H11C10.448 18 10 18.448 10 19C10 19.552 10.448 20 11 20H13C13.552 20 14 19.552 14 19Z" fill="black"/>
</g>
<defs>
<clipPath id="clip0_1289_2243">
<rect width="24" height="24" fill="white"/>
</clipPath>
</defs>
</svg>
