<svg width="20" height="20" viewBox="0 0 20 20" fill="none" xmlns="http://www.w3.org/2000/svg">
<g id="Multichoice" clip-path="url(#clip0_618_822)">
<path id="Vector" d="M17.5 12.5H8.55C7.88333 12.5 7.25833 12.2417 6.78333 11.7667L5.6 10.5917C5.44167 10.4333 5.35833 10.225 5.35833 10C5.35833 9.775 5.45 9.56667 5.6 9.40833L6.78333 8.23333C7.25833 7.75833 7.88333 7.5 8.55 7.5H17.5C18.875 7.5 20 8.625 20 10C20 11.375 18.875 12.5 17.5 12.5ZM7.375 10L7.96667 10.5917C8.125 10.75 8.33333 10.8333 8.55833 10.8333H17.5083C17.9667 10.8333 18.3417 10.4583 18.3417 10C18.3417 9.54167 17.9667 9.16667 17.5083 9.16667H8.55C8.33333 9.16667 8.11667 9.25833 7.95833 9.40833L7.36667 10H7.375ZM15 5H8.55C7.88333 5 7.25833 4.74167 6.78333 4.26667L5.6 3.09167C5.44167 2.93333 5.35833 2.725 5.35833 2.5C5.35833 2.275 5.45 2.06667 5.6 1.90833L6.78333 0.733333C7.25833 0.258333 7.88333 0 8.55 0H15C16.375 0 17.5 1.125 17.5 2.5C17.5 3.875 16.375 5 15 5ZM7.375 2.5L7.96667 3.09167C8.125 3.25 8.33333 3.33333 8.55833 3.33333H15.0083C15.4667 3.33333 15.8417 2.95833 15.8417 2.5C15.8417 2.04167 15.4667 1.66667 15.0083 1.66667H8.55833C8.34167 1.66667 8.125 1.75833 7.96667 1.90833L7.375 2.5ZM13.3333 20H8.55C7.88333 20 7.25833 19.7417 6.78333 19.2667L5.6 18.0917C5.44167 17.9333 5.35833 17.725 5.35833 17.5C5.35833 17.275 5.45 17.0667 5.6 16.9083L6.78333 15.7333C7.25833 15.2583 7.88333 15 8.55 15H13.3333C14.7083 15 15.8333 16.125 15.8333 17.5C15.8333 18.875 14.7083 20 13.3333 20ZM7.375 17.5L7.96667 18.0917C8.125 18.25 8.33333 18.3333 8.55833 18.3333H13.3417C13.8 18.3333 14.175 17.9583 14.175 17.5C14.175 17.0417 13.8 16.6667 13.3417 16.6667H8.55833C8.34167 16.6667 8.125 16.7583 7.96667 16.9083L7.375 17.5ZM1.66667 15.8333C0.75 15.8333 0 16.5833 0 17.5C0 18.4167 0.75 19.1667 1.66667 19.1667C2.58333 19.1667 3.33333 18.4167 3.33333 17.5C3.33333 16.5833 2.58333 15.8333 1.66667 15.8333ZM1.66667 8.33333C0.75 8.33333 0 9.08333 0 10C0 10.9167 0.75 11.6667 1.66667 11.6667C2.58333 11.6667 3.33333 10.9167 3.33333 10C3.33333 9.08333 2.58333 8.33333 1.66667 8.33333ZM1.66667 0.833333C0.75 0.833333 0 1.58333 0 2.5C0 3.41667 0.75 4.16667 1.66667 4.16667C2.58333 4.16667 3.33333 3.41667 3.33333 2.5C3.33333 1.58333 2.58333 0.833333 1.66667 0.833333Z" fill="#090A0B"/>
</g>
<defs>
<clipPath id="clip0_618_822">
<rect width="20" height="20" fill="white"/>
</clipPath>
</defs>
</svg>
