<svg width="26" height="26" viewBox="0 0 26 26" fill="none" xmlns="http://www.w3.org/2000/svg">
<path d="M5 0.5C2.51472 0.5 0.5 2.51472 0.5 5V21C0.5 23.4853 2.51472 25.5 5 25.5H21C23.4853 25.5 25.5 23.4853 25.5 21V5C25.5 2.51472 23.4853 0.5 21 0.5H5Z" fill="white"/>
<path d="M5 0.5C2.51472 0.5 0.5 2.51472 0.5 5V21C0.5 23.4853 2.51472 25.5 5 25.5H21C23.4853 25.5 25.5 23.4853 25.5 21V5C25.5 2.51472 23.4853 0.5 21 0.5H5Z" stroke="white"/>
<g clip-path="url(#clip0_213_2620)">
<path d="M15.253 19.003V21.112C15.253 21.3348 15.154 21.5463 14.983 21.6888C14.8472 21.802 14.6777 21.862 14.503 21.862C14.4572 21.862 14.4122 21.8583 14.3672 21.8493C12.118 21.436 10.0532 20.125 8.70172 18.2538H7.74922C5.68147 18.253 3.99847 16.5708 3.99847 14.5015V11.5008C3.99847 10.6638 4.26922 9.871 4.78222 9.208C5.03722 8.88025 5.50672 8.821 5.83447 9.07375C6.16222 9.32725 6.22222 9.79825 5.96872 10.126C5.66122 10.5228 5.49847 10.9983 5.49847 11.5V14.5008C5.49847 15.742 6.50872 16.7523 7.74997 16.7523H9.08497C9.32572 16.7523 9.55147 16.8678 9.69322 17.0628L9.91822 17.374C10.8655 18.6858 12.2305 19.6668 13.753 20.1513V19.0023C13.753 18.5883 14.0882 18.2523 14.503 18.2523C14.9177 18.2523 15.253 18.589 15.253 19.003ZM21.7802 21.7803C21.634 21.9265 21.442 22 21.25 22C21.058 22 20.866 21.9265 20.7197 21.7803L4.21972 5.28025C3.92647 4.987 3.92647 4.513 4.21972 4.21975C4.51297 3.9265 4.98697 3.9265 5.28022 4.21975L8.74747 7.687C10.0982 5.851 12.1412 4.56475 14.3665 4.15375C14.5862 4.114 14.812 4.1725 14.9822 4.315C15.154 4.4575 15.2522 4.669 15.2522 4.89175V14.1933L16.5167 15.4578C17.1512 14.7925 17.4992 13.9233 17.4992 13.0008C17.4992 12.049 17.1287 11.155 16.4552 10.4815C16.162 10.189 16.162 9.71425 16.4552 9.421C16.7485 9.12775 17.2225 9.12775 17.5157 9.421C18.472 10.3773 18.9992 11.6485 18.9992 13.0008C18.9992 14.3238 18.4945 15.5695 17.5772 16.5183L18.6385 17.5795C21.136 15.016 21.1165 10.8985 18.5777 8.3605C18.2845 8.06725 18.2845 7.59325 18.5777 7.3C18.871 7.00675 19.345 7.00675 19.6382 7.3C22.7612 10.423 22.7815 15.4915 19.699 18.64L21.7795 20.7205C22.0727 21.0138 22.0727 21.4878 21.7795 21.781L21.7802 21.7803ZM9.82147 8.761L13.753 12.6925V5.851C12.229 6.33625 10.8625 7.31725 9.91747 8.6275L9.82147 8.761Z" fill="#090A0B"/>
</g>
<defs>
<clipPath id="clip0_213_2620">
<rect width="18" height="18" fill="white" transform="translate(4 4)"/>
</clipPath>
</defs>
</svg>
