<svg width="114" height="11" viewBox="0 0 114 11" fill="none" xmlns="http://www.w3.org/2000/svg">
<path d="M0.799006 8V0.727273H3.39134C3.95715 0.727273 4.4259 0.830255 4.79759 1.03622C5.16927 1.24219 5.44744 1.52391 5.6321 1.88139C5.81676 2.23651 5.90909 2.6366 5.90909 3.08168C5.90909 3.52912 5.81558 3.93158 5.62855 4.28906C5.44389 4.64418 5.16454 4.9259 4.79048 5.13423C4.4188 5.3402 3.95123 5.44318 3.38778 5.44318H1.60511V4.51278H3.28835C3.64583 4.51278 3.93584 4.45123 4.15838 4.32812C4.38092 4.20265 4.54427 4.0322 4.64844 3.81676C4.7526 3.60133 4.80469 3.3563 4.80469 3.08168C4.80469 2.80705 4.7526 2.56321 4.64844 2.35014C4.54427 2.13707 4.37973 1.97017 4.15483 1.84943C3.93229 1.72869 3.63873 1.66832 3.27415 1.66832H1.89631V8H0.799006ZM9.33949 8.11009C8.82813 8.11009 8.38187 7.9929 8.00071 7.75852C7.61955 7.52415 7.32363 7.19626 7.11293 6.77486C6.90223 6.35346 6.79688 5.86103 6.79688 5.29759C6.79688 4.73177 6.90223 4.23698 7.11293 3.81321C7.32363 3.38944 7.61955 3.06037 8.00071 2.82599C8.38187 2.59162 8.82813 2.47443 9.33949 2.47443C9.85085 2.47443 10.2971 2.59162 10.6783 2.82599C11.0594 3.06037 11.3554 3.38944 11.5661 3.81321C11.7768 4.23698 11.8821 4.73177 11.8821 5.29759C11.8821 5.86103 11.7768 6.35346 11.5661 6.77486C11.3554 7.19626 11.0594 7.52415 10.6783 7.75852C10.2971 7.9929 9.85085 8.11009 9.33949 8.11009ZM9.34304 7.21875C9.67448 7.21875 9.9491 7.13116 10.1669 6.95597C10.3847 6.78078 10.5457 6.54759 10.6499 6.25639C10.7564 5.9652 10.8097 5.64441 10.8097 5.29403C10.8097 4.94602 10.7564 4.62642 10.6499 4.33523C10.5457 4.04167 10.3847 3.80611 10.1669 3.62855C9.9491 3.45099 9.67448 3.36222 9.34304 3.36222C9.00923 3.36222 8.73224 3.45099 8.51207 3.62855C8.29427 3.80611 8.1321 4.04167 8.02557 4.33523C7.9214 4.62642 7.86932 4.94602 7.86932 5.29403C7.86932 5.64441 7.9214 5.9652 8.02557 6.25639C8.1321 6.54759 8.29427 6.78078 8.51207 6.95597C8.73224 7.13116 9.00923 7.21875 9.34304 7.21875ZM14.0838 8L12.4787 2.54545H13.576L14.6449 6.55114H14.6982L15.7706 2.54545H16.8679L17.9332 6.53338H17.9865L19.0483 2.54545H20.1456L18.544 8H17.4609L16.353 4.06179H16.2713L15.1634 8H14.0838ZM23.3381 8.11009C22.8007 8.11009 22.3378 7.99527 21.9496 7.76562C21.5637 7.53362 21.2654 7.2081 21.0547 6.78906C20.8464 6.36766 20.7422 5.87405 20.7422 5.30824C20.7422 4.74953 20.8464 4.2571 21.0547 3.83097C21.2654 3.40483 21.5589 3.07221 21.9354 2.8331C22.3142 2.59399 22.7569 2.47443 23.2635 2.47443C23.5713 2.47443 23.8696 2.52533 24.1584 2.62713C24.4472 2.72893 24.7064 2.88873 24.9361 3.10653C25.1657 3.32434 25.3468 3.60724 25.4794 3.95526C25.612 4.3009 25.6783 4.72112 25.6783 5.21591V5.59233H21.3423V4.79688H24.6378C24.6378 4.51752 24.581 4.27012 24.4673 4.05469C24.3537 3.83688 24.1939 3.66525 23.9879 3.53977C23.7843 3.4143 23.5452 3.35156 23.2706 3.35156C22.9723 3.35156 22.7119 3.42495 22.4893 3.57173C22.2692 3.71615 22.0987 3.90554 21.978 4.13991C21.8596 4.37192 21.8004 4.62405 21.8004 4.89631V5.51776C21.8004 5.88234 21.8643 6.19247 21.9922 6.44815C22.1224 6.70384 22.3035 6.89915 22.5355 7.03409C22.7675 7.16667 23.0386 7.23295 23.3487 7.23295C23.55 7.23295 23.7334 7.20455 23.8991 7.14773C24.0649 7.08854 24.2081 7.00095 24.3288 6.88494C24.4496 6.76894 24.5419 6.62571 24.6058 6.45526L25.6108 6.63636C25.5303 6.93229 25.3859 7.19152 25.1776 7.41406C24.9716 7.63423 24.7124 7.80587 24.3999 7.92898C24.0897 8.04972 23.7358 8.11009 23.3381 8.11009ZM26.8564 8V2.54545H27.8826V3.41193H27.9395C28.0389 3.11837 28.2141 2.88755 28.465 2.71946C28.7183 2.54901 29.0048 2.46378 29.3244 2.46378C29.3907 2.46378 29.4688 2.46615 29.5588 2.47088C29.6511 2.47562 29.7233 2.48153 29.7754 2.48864V3.50426C29.7328 3.49242 29.657 3.4794 29.5481 3.4652C29.4392 3.44863 29.3303 3.44034 29.2214 3.44034C28.9705 3.44034 28.7467 3.49361 28.5502 3.60014C28.3561 3.70431 28.2022 3.84991 28.0886 4.03693C27.975 4.22159 27.9181 4.43229 27.9181 4.66903V8H26.8564ZM32.8498 8.11009C32.3124 8.11009 31.8496 7.99527 31.4613 7.76562C31.0754 7.53362 30.7771 7.2081 30.5664 6.78906C30.3581 6.36766 30.2539 5.87405 30.2539 5.30824C30.2539 4.74953 30.3581 4.2571 30.5664 3.83097C30.7771 3.40483 31.0707 3.07221 31.4471 2.8331C31.8259 2.59399 32.2686 2.47443 32.7752 2.47443C33.083 2.47443 33.3813 2.52533 33.6701 2.62713C33.9589 2.72893 34.2182 2.88873 34.4478 3.10653C34.6774 3.32434 34.8585 3.60724 34.9911 3.95526C35.1237 4.3009 35.19 4.72112 35.19 5.21591V5.59233H30.854V4.79688H34.1495C34.1495 4.51752 34.0927 4.27012 33.979 4.05469C33.8654 3.83688 33.7056 3.66525 33.4996 3.53977C33.296 3.4143 33.0569 3.35156 32.7823 3.35156C32.484 3.35156 32.2236 3.42495 32.0011 3.57173C31.7809 3.71615 31.6104 3.90554 31.4897 4.13991C31.3713 4.37192 31.3121 4.62405 31.3121 4.89631V5.51776C31.3121 5.88234 31.3761 6.19247 31.5039 6.44815C31.6341 6.70384 31.8152 6.89915 32.0472 7.03409C32.2792 7.16667 32.5503 7.23295 32.8604 7.23295C33.0617 7.23295 33.2451 7.20455 33.4109 7.14773C33.5766 7.08854 33.7198 7.00095 33.8406 6.88494C33.9613 6.76894 34.0536 6.62571 34.1175 6.45526L35.1225 6.63636C35.042 6.93229 34.8976 7.19152 34.6893 7.41406C34.4833 7.63423 34.2241 7.80587 33.9116 7.92898C33.6014 8.04972 33.2475 8.11009 32.8498 8.11009ZM38.41 8.10653C37.9696 8.10653 37.5766 7.99408 37.231 7.76918C36.8877 7.5419 36.6178 7.21875 36.4213 6.79972C36.2272 6.37831 36.1301 5.87287 36.1301 5.28338C36.1301 4.69389 36.2284 4.18963 36.4249 3.7706C36.6238 3.35156 36.896 3.03078 37.2417 2.80824C37.5873 2.5857 37.9791 2.47443 38.4171 2.47443C38.7556 2.47443 39.0279 2.53125 39.2338 2.64489C39.4422 2.75616 39.6032 2.88636 39.7168 3.03551C39.8328 3.18466 39.9228 3.31605 39.9867 3.42969H40.0506V0.727273H41.1124V8H40.0755V7.15128H39.9867C39.9228 7.26728 39.8304 7.39986 39.7097 7.54901C39.5913 7.69815 39.428 7.82836 39.2196 7.93963C39.0113 8.0509 38.7414 8.10653 38.41 8.10653ZM38.6444 7.20099C38.9498 7.20099 39.2078 7.1205 39.4185 6.95952C39.6316 6.79616 39.7926 6.57008 39.9015 6.28125C40.0127 5.99242 40.0684 5.65625 40.0684 5.27273C40.0684 4.89394 40.0139 4.5625 39.905 4.27841C39.7961 3.99432 39.6363 3.77296 39.4256 3.61435C39.2149 3.45573 38.9545 3.37642 38.6444 3.37642C38.3248 3.37642 38.0584 3.45928 37.8453 3.625C37.6323 3.79072 37.4713 4.01681 37.3624 4.30327C37.2559 4.58973 37.2026 4.91288 37.2026 5.27273C37.2026 5.63731 37.257 5.9652 37.3659 6.25639C37.4748 6.54759 37.6358 6.77841 37.8489 6.94886C38.0643 7.11695 38.3295 7.20099 38.6444 7.20099ZM45.3596 8V0.727273H48.0229C48.539 0.727273 48.9663 0.8125 49.3049 0.982954C49.6434 1.15104 49.8967 1.3795 50.0648 1.66832C50.2329 1.95478 50.3169 2.27794 50.3169 2.63778C50.3169 2.94081 50.2613 3.1965 50.15 3.40483C50.0388 3.6108 49.8896 3.77651 49.7026 3.90199C49.5179 4.02509 49.3143 4.11506 49.0918 4.17188V4.2429C49.3333 4.25473 49.5688 4.33286 49.7985 4.47727C50.0305 4.61932 50.2222 4.82173 50.3738 5.08452C50.5253 5.3473 50.601 5.6669 50.601 6.04332C50.601 6.41501 50.5134 6.74882 50.3382 7.04474C50.1654 7.3383 49.8979 7.5715 49.5357 7.74432C49.1735 7.91477 48.7106 8 48.1472 8H45.3596ZM46.4569 7.05895H48.0407C48.5662 7.05895 48.9426 6.95715 49.1699 6.75355C49.3972 6.54995 49.5108 6.29545 49.5108 5.99006C49.5108 5.76042 49.4528 5.54972 49.3368 5.35795C49.2208 5.16619 49.0551 5.01349 48.8397 4.89986C48.6266 4.78622 48.3733 4.7294 48.0797 4.7294H46.4569V7.05895ZM46.4569 3.87358H47.927C48.1732 3.87358 48.3946 3.82623 48.5911 3.73153C48.79 3.63684 48.9474 3.50426 49.0634 3.33381C49.1818 3.16098 49.2409 2.95739 49.2409 2.72301C49.2409 2.42235 49.1356 2.17022 48.9249 1.96662C48.7142 1.76302 48.391 1.66122 47.9554 1.66122H46.4569V3.87358ZM52.4885 10.0455C52.3298 10.0455 52.1854 10.0324 52.0552 10.0064C51.925 9.98272 51.8279 9.95668 51.764 9.92827L52.0197 9.05824C52.2138 9.11032 52.3867 9.13281 52.5382 9.12571C52.6897 9.11861 52.8234 9.06179 52.9395 8.95526C53.0578 8.84872 53.162 8.67472 53.252 8.43324L53.3833 8.07102L51.3876 2.54545H52.524L53.9054 6.77841H53.9622L55.3436 2.54545H56.4835L54.2356 8.72798C54.1315 9.01207 53.9989 9.25237 53.8379 9.44886C53.6769 9.64773 53.4851 9.79688 53.2626 9.89631C53.0401 9.99574 52.782 10.0455 52.4885 10.0455ZM59.7441 5.06C59.7441 2.89 61.3841 2.01 63.8241 2.01C66.0241 2.01 67.5741 2.73 67.8541 4.46H66.1041C65.8741 3.7 65.0641 3.44 63.8241 3.44C62.3541 3.44 61.4541 3.83 61.4541 5.06C61.4541 6.28 62.3541 6.67 63.8241 6.67C65.0641 6.67 65.8741 6.41 66.1041 5.65H67.8541C67.5741 7.38 66.0241 8.1 63.8241 8.1C61.3841 8.1 59.7441 7.22 59.7441 5.06ZM72.4276 8.1C69.9876 8.1 68.3476 7.22 68.3476 5.06C68.3476 2.89 69.9876 2.01 72.4276 2.01C74.8576 2.01 76.5076 2.89 76.5076 5.06C76.5076 7.22 74.8576 8.1 72.4276 8.1ZM72.4276 6.67C74.0076 6.67 74.7876 6.28 74.7876 5.06C74.7876 3.83 74.0076 3.44 72.4276 3.44C70.8376 3.44 70.0576 3.83 70.0576 5.06C70.0576 6.28 70.8376 6.67 72.4276 6.67ZM82.2985 2.01C83.8685 2.01 85.3385 2.57 85.3585 4.74L85.3385 8H83.6185V5.39C83.6185 4.14 83.1985 3.49 81.7885 3.49C80.6385 3.49 79.3985 4.08 78.8685 4.7V8H77.1585V2.11H78.8685V3.14C79.7085 2.48 80.8685 2.01 82.2985 2.01ZM91.7521 2.11H93.6521L90.6621 8H88.2221L85.2421 2.11H87.1421L89.4521 6.79L91.7521 2.11ZM94.0823 -1.19209e-07H95.7923V1.49H94.0823V-1.19209e-07ZM94.0823 2.11H95.7923V8H94.0823V2.11ZM100.523 8.1C98.0833 8.1 96.4433 7.22 96.4433 5.06C96.4433 2.89 98.0833 2.01 100.523 2.01C102.953 2.01 104.603 2.89 104.603 5.06C104.603 7.22 102.953 8.1 100.523 8.1ZM100.523 6.67C102.103 6.67 102.883 6.28 102.883 5.06C102.883 3.83 102.103 3.44 100.523 3.44C98.9333 3.44 98.1533 3.83 98.1533 5.06C98.1533 6.28 98.9333 6.67 100.523 6.67ZM109.176 8.1C106.736 8.1 105.096 7.22 105.096 5.06C105.096 2.89 106.736 2.01 109.176 2.01C111.606 2.01 113.256 2.89 113.256 5.06C113.256 7.22 111.606 8.1 109.176 8.1ZM109.176 6.67C110.756 6.67 111.536 6.28 111.536 5.06C111.536 3.83 110.756 3.44 109.176 3.44C107.586 3.44 106.806 3.83 106.806 5.06C106.806 6.28 107.586 6.67 109.176 6.67Z" fill="white"/>
</svg>
