<svg width="20" height="20" viewBox="0 0 20 20" fill="none" xmlns="http://www.w3.org/2000/svg">
<g id="BtnIcon" clip-path="url(#clip0_360_1352)">
<path id="Vector" d="M19.0858 5.4485C18.5217 5.16766 17.8583 5.22683 17.3542 5.60516C17.3217 5.62933 15.8175 7.14266 15.8175 7.14266C15.635 5.01183 13.8433 3.3335 11.6667 3.3335H4.16667C1.86917 3.3335 0 5.20266 0 7.50016V12.5002C0 14.7977 1.86917 16.6668 4.16667 16.6668H11.6667C13.8533 16.6668 15.6525 14.9735 15.82 12.8285C15.82 12.8285 17.3225 14.3252 17.3542 14.3493C17.6475 14.5693 17.995 14.6818 18.345 14.6818C18.5967 14.6818 18.85 14.6235 19.0858 14.506C19.6492 14.2243 20 13.6568 20 13.0268V6.92766C20 6.29766 19.65 5.73016 19.0858 5.4485ZM14.1667 12.5002C14.1667 13.8785 13.045 15.0002 11.6667 15.0002H4.16667C2.78833 15.0002 1.66667 13.8785 1.66667 12.5002V7.50016C1.66667 6.12183 2.78833 5.00016 4.16667 5.00016H11.6667C13.045 5.00016 14.1667 6.12183 14.1667 7.50016V12.5002ZM15.8333 10.486V9.49516L18.3333 6.97183L18.3542 13.0043L15.8333 10.486ZM11.25 10.0002C11.25 10.4602 10.8767 10.8335 10.4167 10.8335H8.75V12.5002C8.75 12.9602 8.37667 13.3335 7.91667 13.3335C7.45667 13.3335 7.08333 12.9602 7.08333 12.5002V10.8335H5.41667C4.95667 10.8335 4.58333 10.4602 4.58333 10.0002C4.58333 9.54016 4.95667 9.16683 5.41667 9.16683H7.08333V7.50016C7.08333 7.04016 7.45667 6.66683 7.91667 6.66683C8.37667 6.66683 8.75 7.04016 8.75 7.50016V9.16683H10.4167C10.8767 9.16683 11.25 9.54016 11.25 10.0002Z" fill="white"/>
</g>
<defs>
<clipPath id="clip0_360_1352">
<rect width="20" height="20" fill="white"/>
</clipPath>
</defs>
</svg>
