<svg width="21" height="20" viewBox="0 0 21 20" fill="none" xmlns="http://www.w3.org/2000/svg">
<g id="DashIcon" clip-path="url(#clip0_340_1301)">
<path id="Vector" d="M19.5858 5.44837C19.0217 5.16754 18.3583 5.22671 17.8542 5.60504C17.8217 5.62921 16.3175 7.14254 16.3175 7.14254C16.135 5.01171 14.3433 3.33337 12.1667 3.33337H4.66667C2.36917 3.33337 0.5 5.20254 0.5 7.50004V12.5C0.5 14.7975 2.36917 16.6667 4.66667 16.6667H12.1667C14.3533 16.6667 16.1525 14.9734 16.32 12.8284C16.32 12.8284 17.8225 14.325 17.8542 14.3492C18.1475 14.5692 18.495 14.6817 18.845 14.6817C19.0967 14.6817 19.35 14.6234 19.5858 14.5059C20.1492 14.2242 20.5 13.6567 20.5 13.0267V6.92754C20.5 6.29754 20.15 5.73004 19.5858 5.44837ZM14.6667 12.5C14.6667 13.8784 13.545 15 12.1667 15H4.66667C3.28833 15 2.16667 13.8784 2.16667 12.5V7.50004C2.16667 6.12171 3.28833 5.00004 4.66667 5.00004H12.1667C13.545 5.00004 14.6667 6.12171 14.6667 7.50004V12.5ZM16.3333 10.4859V9.49504L18.8333 6.97171L18.8542 13.0042L16.3333 10.4859ZM11.75 10C11.75 10.46 11.3767 10.8334 10.9167 10.8334H9.25V12.5C9.25 12.96 8.87667 13.3334 8.41667 13.3334C7.95667 13.3334 7.58333 12.96 7.58333 12.5V10.8334H5.91667C5.45667 10.8334 5.08333 10.46 5.08333 10C5.08333 9.54004 5.45667 9.16671 5.91667 9.16671H7.58333V7.50004C7.58333 7.04004 7.95667 6.66671 8.41667 6.66671C8.87667 6.66671 9.25 7.04004 9.25 7.50004V9.16671H10.9167C11.3767 9.16671 11.75 9.54004 11.75 10Z" fill="#090A0B"/>
</g>
<defs>
<clipPath id="clip0_340_1301">
<rect width="20" height="20" fill="white" transform="translate(0.5)"/>
</clipPath>
</defs>
</svg>
