<svg width="20" height="20" viewBox="0 0 20 20" fill="none" xmlns="http://www.w3.org/2000/svg">
<g id="DashIcon" clip-path="url(#clip0_530_648)">
<path id="Vector" d="M15.8333 2.5H4.16667C3.062 2.50132 2.00296 2.94073 1.22185 3.72185C0.440735 4.50296 0.00132321 5.562 0 6.66667L0 11.6667C0.00132321 12.7713 0.440735 13.8304 1.22185 14.6115C2.00296 15.3926 3.062 15.832 4.16667 15.8333H9.16667V16.6667H6.66667C6.44565 16.6667 6.23369 16.7545 6.07741 16.9107C5.92113 17.067 5.83333 17.279 5.83333 17.5C5.83333 17.721 5.92113 17.933 6.07741 18.0893C6.23369 18.2455 6.44565 18.3333 6.66667 18.3333H13.3333C13.5543 18.3333 13.7663 18.2455 13.9226 18.0893C14.0789 17.933 14.1667 17.721 14.1667 17.5C14.1667 17.279 14.0789 17.067 13.9226 16.9107C13.7663 16.7545 13.5543 16.6667 13.3333 16.6667H10.8333V15.8333H15.8333C16.938 15.832 17.997 15.3926 18.7782 14.6115C19.5593 13.8304 19.9987 12.7713 20 11.6667V6.66667C19.9987 5.562 19.5593 4.50296 18.7782 3.72185C17.997 2.94073 16.938 2.50132 15.8333 2.5ZM18.3333 11.6667C18.3333 12.3297 18.0699 12.9656 17.6011 13.4344C17.1323 13.9033 16.4964 14.1667 15.8333 14.1667H4.16667C3.50363 14.1667 2.86774 13.9033 2.3989 13.4344C1.93006 12.9656 1.66667 12.3297 1.66667 11.6667V6.66667C1.66667 6.00363 1.93006 5.36774 2.3989 4.8989C2.86774 4.43006 3.50363 4.16667 4.16667 4.16667H15.8333C16.4964 4.16667 17.1323 4.43006 17.6011 4.8989C18.0699 5.36774 18.3333 6.00363 18.3333 6.66667V11.6667Z" fill="#3D4FE0"/>
</g>
<defs>
<clipPath id="clip0_530_648">
<rect width="20" height="20" fill="white"/>
</clipPath>
</defs>
</svg>
