<svg width="20" height="20" viewBox="0 0 20 20" fill="none" xmlns="http://www.w3.org/2000/svg">
<g id="Share">
<path id="Vector" d="M17.1926 4.08526V10.0371C17.1926 10.5359 17.5975 10.9408 18.0963 10.9408C18.5952 10.9408 19 10.5359 19 10.0371V3.71112C19 2.21639 17.7836 1 16.2889 1H9.96295C9.4641 1 9.05924 1.40486 9.05924 1.90371C9.05924 2.40256 9.4641 2.80742 9.96295 2.80742H15.9148L1.26482 17.4574C0.911469 17.8107 0.911469 18.3819 1.26482 18.7352C1.44104 18.9114 1.67239 19 1.90374 19C2.13509 19 2.36644 18.9114 2.54266 18.7352L17.1926 4.08526Z" fill="white"/>
</g>
</svg>
