<svg width="21" height="20" viewBox="0 0 21 20" fill="none" xmlns="http://www.w3.org/2000/svg">
<g id="DashIcon" clip-path="url(#clip0_340_1278)">
<path id="Vector" d="M9.67242 2.14863L9.66659 11.667C9.66659 11.888 9.75439 12.0999 9.91067 12.2562C10.0669 12.4125 10.2789 12.5003 10.4999 12.5003C10.7209 12.5003 10.9329 12.4125 11.0892 12.2562C11.2455 12.0999 11.3333 11.888 11.3333 11.667L11.3391 2.1628L13.7658 4.5903C13.922 4.74653 14.134 4.83429 14.3549 4.83429C14.5759 4.83429 14.7878 4.74653 14.9441 4.5903C15.1003 4.43403 15.1881 4.2221 15.1881 4.00113C15.1881 3.78016 15.1003 3.56824 14.9441 3.41197L12.2683 0.7328C12.0361 0.500483 11.7604 0.316191 11.457 0.190454C11.1536 0.0647175 10.8284 0 10.4999 0C10.1715 0 9.84626 0.0647175 9.54284 0.190454C9.23943 0.316191 8.96376 0.500483 8.73159 0.7328L6.05576 3.40947C5.89953 3.56574 5.81177 3.77766 5.81177 3.99863C5.81177 4.2196 5.89953 4.43153 6.05576 4.5878C6.21203 4.74403 6.42395 4.83179 6.64492 4.83179C6.86589 4.83179 7.07782 4.74403 7.23409 4.5878L9.67242 2.14863Z" fill="#090A0B"/>
<path id="Vector_2" d="M18.8333 13.8333V17.1667C18.8333 17.3877 18.7455 17.5996 18.5893 17.7559C18.433 17.9122 18.221 18 18 18H3C2.77899 18 2.56702 17.9122 2.41074 17.7559C2.25446 17.5996 2.16667 17.3877 2.16667 17.1667V13.8333C2.16667 13.6123 2.07887 13.4004 1.92259 13.2441C1.76631 13.0878 1.55435 13 1.33333 13C1.11232 13 0.900358 13.0878 0.744078 13.2441C0.587797 13.4004 0.5 13.6123 0.5 13.8333L0.5 17.1667C0.5 17.8297 0.763392 18.4656 1.23223 18.9344C1.70107 19.4033 2.33696 19.6667 3 19.6667H18C18.663 19.6667 19.2989 19.4033 19.7678 18.9344C20.2366 18.4656 20.5 17.8297 20.5 17.1667V13.8333C20.5 13.6123 20.4122 13.4004 20.2559 13.2441C20.0996 13.0878 19.8877 13 19.6667 13C19.4457 13 19.2337 13.0878 19.0774 13.2441C18.9211 13.4004 18.8333 13.6123 18.8333 13.8333Z" fill="#090A0B"/>
</g>
<defs>
<clipPath id="clip0_340_1278">
<rect width="20" height="20" fill="white" transform="translate(0.5)"/>
</clipPath>
</defs>
</svg>
