<svg width="20" height="20" viewBox="0 0 20 20" fill="none" xmlns="http://www.w3.org/2000/svg">
<g id="DashIcon" clip-path="url(#clip0_530_770)">
<path id="Vector" d="M9.17267 2.14863L9.16683 11.667C9.16683 11.888 9.25463 12.0999 9.41091 12.2562C9.56719 12.4125 9.77915 12.5003 10.0002 12.5003C10.2212 12.5003 10.4331 12.4125 10.5894 12.2562C10.7457 12.0999 10.8335 11.888 10.8335 11.667L10.8393 2.1628L13.266 4.5903C13.4223 4.74653 13.6342 4.83429 13.8552 4.83429C14.0761 4.83429 14.2881 4.74653 14.4443 4.5903C14.6006 4.43403 14.6883 4.2221 14.6883 4.00113C14.6883 3.78016 14.6006 3.56824 14.4443 3.41197L11.7685 0.7328C11.5363 0.500483 11.2607 0.316191 10.9572 0.190454C10.6538 0.0647175 10.3286 0 10.0002 0C9.67173 0 9.34651 0.0647175 9.04309 0.190454C8.73967 0.316191 8.464 0.500483 8.23183 0.7328L5.556 3.40947C5.39977 3.56574 5.31201 3.77766 5.31201 3.99863C5.31201 4.2196 5.39977 4.43153 5.556 4.5878C5.71227 4.74403 5.9242 4.83179 6.14517 4.83179C6.36614 4.83179 6.57806 4.74403 6.73433 4.5878L9.17267 2.14863Z" fill="#3D4FE0"/>
<path id="Vector_2" d="M18.3333 13.8333V17.1667C18.3333 17.3877 18.2455 17.5996 18.0893 17.7559C17.933 17.9122 17.721 18 17.5 18H2.5C2.27899 18 2.06702 17.9122 1.91074 17.7559C1.75446 17.5996 1.66667 17.3877 1.66667 17.1667V13.8333C1.66667 13.6123 1.57887 13.4004 1.42259 13.2441C1.26631 13.0878 1.05435 13 0.833333 13C0.61232 13 0.400358 13.0878 0.244078 13.2441C0.0877974 13.4004 0 13.6123 0 13.8333L0 17.1667C0 17.8297 0.263392 18.4656 0.732233 18.9344C1.20107 19.4033 1.83696 19.6667 2.5 19.6667H17.5C18.163 19.6667 18.7989 19.4033 19.2678 18.9344C19.7366 18.4656 20 17.8297 20 17.1667V13.8333C20 13.6123 19.9122 13.4004 19.7559 13.2441C19.5996 13.0878 19.3877 13 19.1667 13C18.9457 13 18.7337 13.0878 18.5774 13.2441C18.4211 13.4004 18.3333 13.6123 18.3333 13.8333Z" fill="#3D4FE0"/>
</g>
<defs>
<clipPath id="clip0_530_770">
<rect width="20" height="20" fill="white"/>
</clipPath>
</defs>
</svg>
