<svg width="18" height="18" viewBox="0 0 18 18" fill="none" xmlns="http://www.w3.org/2000/svg">
<g id="volume-down 1" clip-path="url(#clip0_664_729)">
<path id="Vector" d="M10.9825 0.313569C10.8108 0.171069 10.5873 0.112569 10.3668 0.152319C8.11605 0.568569 6.0513 1.87882 4.7013 3.74782H3.74805C1.6803 3.74857 -0.00195312 5.43082 -0.00195312 7.49857V10.5023C-0.00195312 12.5701 1.6803 14.2523 3.74805 14.2523H4.7013C6.0528 16.1236 8.11755 17.4346 10.3668 17.8478C10.4118 17.8561 10.4575 17.8606 10.5025 17.8606C10.6765 17.8606 10.8468 17.7998 10.9825 17.6873C11.1535 17.5448 11.2525 17.3333 11.2525 17.1106V0.890319C11.2525 0.667569 11.1543 0.456069 10.9825 0.313569ZM9.75255 16.1513C8.23005 15.6668 6.8643 14.6858 5.9178 13.3741L5.69355 13.0628C5.55255 12.8678 5.3268 12.7516 5.0853 12.7516H3.7488C2.5083 12.7516 1.4988 11.7421 1.4988 10.5016V7.49782C1.4988 6.25732 2.5083 5.24782 3.7488 5.24782H5.0853C5.32605 5.24782 5.55255 5.13232 5.69355 4.93657L5.9178 4.62532C6.86355 3.31507 8.23005 2.33482 9.7533 1.84882V16.1498L9.75255 16.1513ZM13.5168 12.5791C13.3705 12.7253 13.1785 12.7988 12.9865 12.7988C12.7945 12.7988 12.6025 12.7253 12.4563 12.5791C12.163 12.2858 12.163 11.8118 12.4563 11.5186C13.8453 10.1296 13.8453 7.86907 12.4563 6.48007C12.163 6.18682 12.163 5.71282 12.4563 5.41957C12.7495 5.12632 13.2235 5.12632 13.5168 5.41957C15.4908 7.39357 15.4908 10.6051 13.5168 12.5791Z" fill="white"/>
</g>
<defs>
<clipPath id="clip0_664_729">
<rect width="18" height="18" fill="white"/>
</clipPath>
</defs>
</svg>
